<svg width="19" height="17" viewBox="0 0 19 17" fill="none" xmlns="http://www.w3.org/2000/svg">
<g filter="url(#filter0_d_216_3)">
<path d="M18.9171 7.30102L10.2457 0.264952C10.035 0.0927557 9.77185 -0.00123024 9.50042 -0.00123024C9.229 -0.00123024 8.96583 0.0927557 8.7551 0.264952L0.0837115 7.30102C0.060804 7.31944 0.0417585 7.34225 0.0276807 7.36813C0.0136029 7.39401 0.00477327 7.42245 0.00170444 7.4518C-0.00136439 7.48114 0.00138873 7.51081 0.00980395 7.53908C0.0182192 7.56734 0.0321288 7.59364 0.0507254 7.61645L0.519128 8.19751C0.537742 8.22064 0.560703 8.23984 0.586698 8.25403C0.612693 8.26822 0.641212 8.27711 0.670623 8.28019C0.700034 8.28328 0.729761 8.28049 0.758103 8.272C0.786444 8.26351 0.812845 8.24948 0.835795 8.23071L2.11137 7.19511V16.4681C2.11137 16.609 2.16697 16.7441 2.26595 16.8437C2.36493 16.9434 2.49917 16.9993 2.63915 16.9993H16.3614C16.5013 16.9993 16.6356 16.9434 16.7346 16.8437C16.8335 16.7441 16.8891 16.609 16.8891 16.4681V7.19843L18.169 8.23735C18.2154 8.27518 18.2748 8.29292 18.3342 8.2867C18.3935 8.28047 18.448 8.25078 18.4857 8.20415L18.9538 7.6231C18.9894 7.57477 19.0055 7.51459 18.9987 7.45478C18.9919 7.39496 18.9627 7.33999 18.9171 7.30102ZM7.91692 15.9368V10.6243H11.0836V15.9368H7.91692ZM15.8336 15.9368H12.1391V10.0931C12.1391 9.95218 12.0835 9.81705 11.9846 9.71743C11.8856 9.6178 11.7513 9.56183 11.6114 9.56183H7.38915C7.24917 9.56183 7.11493 9.6178 7.01595 9.71743C6.91697 9.81705 6.86137 9.95218 6.86137 10.0931V15.9368H3.16692V6.33847L9.35875 1.31151C9.39783 1.27931 9.44678 1.26171 9.49729 1.26171C9.5478 1.26171 9.59675 1.27931 9.63583 1.31151L15.8336 6.34112V15.9368Z" fill="black"/>
<path d="M18.169 8.23735L17.3891 7.6043V7.19843H16.8891L16.574 7.58663L16.8891 7.84243V16.4681C16.8891 16.609 16.8335 16.7441 16.7346 16.8437C16.6356 16.9434 16.5013 16.9993 16.3614 16.9993H2.63915C2.49917 16.9993 2.36493 16.9434 2.26595 16.8437C2.16697 16.7441 2.11137 16.609 2.11137 16.4681V7.83915L2.42652 7.58328L2.11137 7.19511H1.61137V7.60104L0.835795 8.23071C0.812845 8.24948 0.786444 8.26351 0.758103 8.272C0.729761 8.28049 0.700034 8.28328 0.670623 8.28019C0.641212 8.27711 0.612693 8.26822 0.586698 8.25403C0.560703 8.23984 0.537742 8.22064 0.519128 8.19751L0.0507254 7.61645C0.0321288 7.59364 0.0182192 7.56734 0.00980395 7.53908C0.00138873 7.51081 -0.00136439 7.48114 0.00170444 7.4518C0.00477327 7.42245 0.0136029 7.39401 0.0276807 7.36813C0.0417585 7.34225 0.060804 7.31944 0.0837115 7.30102L18.169 8.23735ZM18.169 8.23735C18.2154 8.27518 18.2748 8.29292 18.3342 8.2867C18.3935 8.28047 18.448 8.25078 18.4857 8.20415L18.169 8.23735ZM9.9307 0.653215L18.3942 7.52063L18.2698 7.67515L17.2043 6.81023L16.3891 6.14855V7.19843V16.4681C16.3891 16.4774 16.3854 16.4857 16.3799 16.4913C16.3744 16.4968 16.3677 16.4993 16.3614 16.4993H2.63915C2.63284 16.4993 2.62613 16.4968 2.62066 16.4913C2.61509 16.4857 2.61137 16.4774 2.61137 16.4681V7.19511V6.14513L1.79622 6.80693L0.73495 7.66855L0.612111 7.51617L9.07015 0.653218L9.07148 0.652128C9.19317 0.552688 9.34464 0.49877 9.50042 0.49877C9.65621 0.49877 9.80768 0.552688 9.92937 0.65213L9.9307 0.653215ZM0.908374 7.88368C0.908382 7.88369 0.908389 7.8837 0.908397 7.88371L0.908374 7.88368ZM7.41692 15.9368V16.4368H7.91692H11.0836H11.5836V15.9368V10.6243V10.1243H11.0836H7.91692H7.41692V10.6243V15.9368ZM15.8336 16.4368H16.3336V15.9368V6.34112V6.10296L16.1487 5.95288L9.95382 0.925657C9.95318 0.925135 9.95255 0.924614 9.95191 0.924094C9.82386 0.819301 9.66334 0.761709 9.49729 0.761709C9.33123 0.761709 9.1707 0.819305 9.04265 0.924107C9.04202 0.924623 9.04139 0.925139 9.04076 0.925657L2.85177 5.95029L2.66692 6.10036V6.33847V15.9368V16.4368H3.16692H6.86137H7.36137V15.9368V10.0931C7.36137 10.0837 7.36509 10.0754 7.37066 10.0698C7.37613 10.0643 7.38284 10.0618 7.38915 10.0618H11.6114C11.6177 10.0618 11.6244 10.0643 11.6299 10.0698C11.6354 10.0754 11.6391 10.0837 11.6391 10.0931V15.9368V16.4368H12.1391H15.8336Z" stroke="black"/>
</g>
<defs>
<filter id="filter0_d_216_3" x="-3.99951" y="-0.00123024" width="26.9998" height="25.0006" filterUnits="userSpaceOnUse" color-interpolation-filters="sRGB">
<feFlood flood-opacity="0" result="BackgroundImageFix"/>
<feColorMatrix in="SourceAlpha" type="matrix" values="0 0 0 0 0 0 0 0 0 0 0 0 0 0 0 0 0 0 127 0" result="hardAlpha"/>
<feOffset dy="4"/>
<feGaussianBlur stdDeviation="2"/>
<feComposite in2="hardAlpha" operator="out"/>
<feColorMatrix type="matrix" values="0 0 0 0 0 0 0 0 0 0 0 0 0 0 0 0 0 0 0.25 0"/>
<feBlend mode="normal" in2="BackgroundImageFix" result="effect1_dropShadow_216_3"/>
<feBlend mode="normal" in="SourceGraphic" in2="effect1_dropShadow_216_3" result="shape"/>
</filter>
</defs>
</svg>
